<?xml version="1.0" encoding="UTF-8"?>
<svg xmlns="http://www.w3.org/2000/svg" version="1.1" viewBox="0 0 231.3 97.5">
  <defs>
    <style>
      .cls-1 {
        fill: #fcfcfc;
      }

      .cls-2 {
        fill: #ffd605;
      }

      .cls-3 {
        isolation: isolate;
      }
    </style>
  </defs>
  <!-- Generator: Adobe Illustrator 28.6.0, SVG Export Plug-In . SVG Version: 1.2.0 Build 709)  -->
  <g>
    <g id="Capa_2">
      <g id="Capa_1-2">
        <g>
          <path class="cls-1" d="M34.1,46.6c.2,3.6,2.3,6,6,6s4.2-1,5-2.9h8.1c-1.6,6.2-7.3,8.8-13.2,8.8-8.7,0-14.6-5.2-14.6-14.2s6.5-14,14.4-14,14.3,7.2,13.9,16.2h-19.5ZM44.9,41.7c-.2-3-2.3-5.4-5.2-5.4s-5.1,2.2-5.6,5.4h10.8ZM62.3,49c0,1.3.6,2.3,1.4,3,.8.6,2,.9,3.2.9s4.1-.7,4.1-2.8-2.7-2.5-4.2-2.8c-5.4-1.4-12.2-1.5-12.2-8.7s6.8-8.1,12-8.1,11.8,1.7,12.1,8.6h-8c0-1.1-.4-1.8-1.1-2.3-.7-.5-1.7-.7-2.7-.7s-3.7.2-3.7,2,5.8,3,9.7,3.8c5.3,1.1,6.7,5,6.7,7.2,0,7.1-6.7,9.5-12.6,9.5s-12.6-2.1-12.9-9.5h8.2ZM80.9,31.2h8.5v3.6h0c1.6-2.7,4.4-4.4,7.6-4.4s6.3,1.1,7.7,4.3c2.1-2.8,4.7-4.3,8.3-4.3,8.5,0,9.4,6.4,9.4,11.5v15.9h-8.7v-15.6c0-2.9-1.4-4.6-3.6-4.6-3.7,0-4.1,2.9-4.1,7.2v13h-8.7v-15.1c0-3.1-.9-5.1-3.3-5.1s-4.5,1.8-4.5,7.2v13h-8.7v-26.6h0ZM124.9,39.4c.2-3.5,1.8-5.7,4.1-7.1,2.4-1.3,5.4-1.9,8.5-1.9,6.3,0,12.4,1.4,12.4,8.9v11.6c0,2.3,0,4.7,1,6.8h-8.8c-.3-.8-.4-1.6-.5-2.5-2.3,2.4-5.6,3.3-8.8,3.3-5.1,0-9.1-2.6-9.1-8,0-8.7,9.4-8,15.5-9.2,1.5-.3,2.3-.8,2.3-2.5s-2.4-2.8-4.2-2.8-3.9,1.1-4.4,3.3h-8.2,0ZM136.2,53.2c4.1,0,5.5-2.4,5.3-7.8-1.2.8-3.5.9-5.4,1.4-1.9.5-3.6,1.3-3.6,3.4s1.7,3,3.6,3ZM169.1,40.9c0-2.3-2-3.8-4.2-3.8-4.8,0-5.5,4.2-5.5,7.8s1.5,7,5.1,7,4.5-1.7,4.9-4.6h8.3c-.8,7.1-6.2,11.2-13.1,11.2s-13.7-5.5-13.7-13.6,5.3-14.5,13.7-14.5,12.3,3.5,12.9,10.5h-8.3,0ZM191.6,30.4c8,0,13.6,6.1,13.6,14.1s-5.6,14-13.6,14-13.6-6-13.6-14,5.6-14.1,13.6-14.1ZM191.6,51.9c3.9,0,5.2-4,5.2-7.4s-1.2-7.4-5.2-7.4-5.1,4-5.1,7.4,1.2,7.4,5.1,7.4ZM205.9,31h8.1l8.2,14.5h0v-14.5h7.6v26.8h-7.9l-8.4-14.7h0v14.7h-7.7v-26.8h0ZM.7,31h15.2c4.7,0,9.4,2.1,9.4,7.5s-1.4,5.6-4.2,6.7h0c2.9.8,3.7,3.9,3.9,6.5,0,1.1.2,5.1,1.1,6h-8c-.6-.9-.7-3.2-.8-3.9-.2-2.7-.6-5.5-3.9-5.5h-4.5v9.4H.7v-26.8h0ZM8.9,42.6h5.3c1.8,0,2.8-1,2.8-2.7s-1.4-2.5-3.1-2.5h-5v5.3Z"/>
          <path class="cls-2" d="M151.5,34.8c-1.3-4-5.5-6.6-9.3-6.7-.4-7.2-2.3-13.8-5.9-19.6,6.4.3,12.2.7,16.6,1.7,2.8,7.8,2,16.1-1.5,24.7ZM158.8,4.7c1.6,4.9,1.6,11.8.4,17.6,3-5.6,4.2-15.4,2.2-21.3-4.8-.8-9.9-.8-16.3-1,.6,1.1,1.2,2.3,1.8,3.5,4.5.3,8.6.6,12,1.2h0ZM154.4,8.7c1.7,4.5,2.4,13,.7,20.6,3.2-6,4.8-16.4,2.5-23.3-4.6-.8-10.3-1.2-16.7-1.5.5.9,1,1.8,1.5,2.7,4.6.3,8.7.7,12,1.5h0Z"/>
          <g class="cls-3">
            <path class="cls-2" d="M7.2,70.9c.7-.4,1.5-.6,2.3-.6v4.2h-1.1c-1,0-1.7.2-2.2.6-.5.4-.7,1.2-.7,2.2v6H1.4v-13h4v2.2c.5-.7,1-1.3,1.7-1.7Z"/>
            <path class="cls-2" d="M28,77.8h-9c0,.8.3,1.4.8,1.9.5.4,1,.6,1.7.6,1,0,1.7-.4,2.1-1.3h4.2c-.2.9-.6,1.6-1.2,2.3s-1.3,1.2-2.1,1.6c-.9.4-1.8.6-2.9.6s-2.4-.3-3.4-.8c-1-.5-1.8-1.3-2.3-2.3s-.8-2.2-.8-3.5.3-2.5.8-3.5,1.3-1.8,2.3-2.3,2.1-.8,3.4-.8,2.4.3,3.4.8,1.7,1.3,2.3,2.3.8,2.1.8,3.4,0,.8,0,1.2ZM24,75.6c0-.7-.2-1.2-.7-1.6-.5-.4-1-.6-1.7-.6s-1.2.2-1.7.6c-.5.4-.7.9-.9,1.7h5Z"/>
            <path class="cls-2" d="M36.8,83c-.9-.4-1.6-.9-2.1-1.6-.5-.7-.8-1.4-.9-2.3h3.9c0,.5.3.8.6,1.1.4.3.8.4,1.4.4s.9,0,1.2-.3c.3-.2.4-.4.4-.8s-.2-.6-.6-.8-1-.4-1.9-.6c-.9-.2-1.7-.4-2.3-.7-.6-.2-1.2-.6-1.6-1.1-.5-.5-.7-1.2-.7-2.1s.2-1.4.6-2c.4-.6,1-1.1,1.8-1.5.8-.4,1.8-.5,2.9-.5,1.6,0,2.9.4,3.9,1.2.9.8,1.5,1.9,1.6,3.2h-3.7c0-.5-.3-.8-.6-1.1-.3-.3-.8-.4-1.3-.4s-.8,0-1.1.3c-.2.2-.4.4-.4.7s.2.7.6.8c.4.2,1,.4,1.9.6,1,.2,1.7.5,2.4.7s1.1.6,1.6,1.2c.5.5.7,1.3.7,2.2,0,.8-.2,1.4-.6,2-.4.6-1,1.1-1.8,1.4-.8.3-1.7.5-2.8.5s-2.1-.2-3-.6Z"/>
            <path class="cls-2" d="M72.4,71.7c1,1,1.4,2.3,1.4,4.1v7.6h-4v-7.1c0-.8-.2-1.5-.7-1.9-.4-.5-1.1-.7-1.8-.7s-1.4.2-1.8.7c-.4.5-.7,1.1-.7,1.9v7.1h-4v-7.1c0-.8-.2-1.5-.7-1.9-.4-.5-1.1-.7-1.8-.7s-1.4.2-1.8.7c-.4.5-.7,1.1-.7,1.9v7.1h-4v-13h4v1.6c.4-.5.9-1,1.6-1.3s1.4-.5,2.2-.5,1.9.2,2.6.6c.8.4,1.4,1,1.8,1.8.5-.7,1.1-1.3,1.8-1.7.8-.5,1.6-.7,2.5-.7,1.6,0,2.9.5,3.9,1.5Z"/>
            <path class="cls-2" d="M81,73.3c.5-1,1.2-1.8,2.1-2.3.9-.5,1.8-.8,2.9-.8s1.7.2,2.4.6c.7.4,1.2.9,1.6,1.5v-1.8h4v13h-4v-1.8c-.4.6-.9,1.1-1.6,1.5-.7.4-1.5.6-2.4.6s-2-.3-2.9-.8c-.9-.6-1.6-1.3-2.1-2.4-.5-1-.8-2.2-.8-3.5s.3-2.5.8-3.5ZM89.2,74.5c-.6-.6-1.2-.9-2-.9s-1.5.3-2,.9c-.6.6-.8,1.3-.8,2.3s.3,1.8.8,2.4c.6.6,1.2.9,2,.9s1.5-.3,2-.9c.6-.6.8-1.4.8-2.4s-.3-1.8-.8-2.4Z"/>
            <path class="cls-2" d="M101.3,73.3c.6-1,1.3-1.8,2.3-2.3s2.1-.8,3.4-.8,3,.4,4.1,1.3,1.8,2.1,2.2,3.6h-4.2c-.4-1-1-1.5-2.1-1.5s-1.3.3-1.7.9c-.4.6-.7,1.4-.7,2.4s.2,1.9.7,2.4c.4.6,1,.8,1.7.8s1.7-.5,2.1-1.5h4.2c-.3,1.5-1.1,2.7-2.2,3.6-1.1.9-2.5,1.3-4.1,1.3s-2.4-.3-3.4-.8-1.8-1.3-2.3-2.3-.8-2.2-.8-3.5.3-2.5.8-3.5Z"/>
            <path class="cls-2" d="M122.3,82.8c-1-.5-1.8-1.3-2.4-2.3s-.9-2.2-.9-3.5.3-2.5.9-3.5c.6-1,1.4-1.8,2.4-2.3s2.2-.8,3.4-.8,2.4.3,3.4.8,1.8,1.3,2.4,2.3c.6,1,.9,2.2.9,3.5s-.3,2.5-.9,3.5-1.4,1.8-2.4,2.3-2.2.8-3.5.8-2.4-.3-3.4-.8ZM127.6,79.3c.5-.6.8-1.4.8-2.4s-.3-1.8-.8-2.4c-.5-.6-1.2-.8-1.9-.8s-1.4.3-1.9.8-.8,1.4-.8,2.4.3,1.8.8,2.4c.5.6,1.1.8,1.9.8s1.4-.3,1.9-.8Z"/>
            <path class="cls-2" d="M150.6,71.7c.9,1,1.4,2.3,1.4,4.1v7.6h-4v-7.1c0-.9-.2-1.5-.7-2-.5-.5-1.1-.7-1.8-.7s-1.4.2-1.8.7c-.5.5-.7,1.2-.7,2v7.1h-4v-13h4v1.7c.4-.6.9-1,1.6-1.4.7-.3,1.5-.5,2.3-.5,1.5,0,2.7.5,3.6,1.5Z"/>
            <path class="cls-2" d="M159.3,82.9c-.4-.4-.7-.9-.7-1.5s.2-1.1.7-1.6c.4-.4,1-.6,1.7-.6s1.2.2,1.7.6c.4.4.7.9.7,1.6s-.2,1.1-.7,1.5c-.4.4-1,.6-1.7.6s-1.3-.2-1.7-.6Z"/>
            <path class="cls-2" d="M170.1,73.3c.6-1,1.3-1.8,2.3-2.3s2.1-.8,3.4-.8,3,.4,4.1,1.3c1.1.9,1.8,2.1,2.2,3.6h-4.2c-.4-1-1-1.5-2.1-1.5s-1.3.3-1.7.9c-.4.6-.7,1.4-.7,2.4s.2,1.9.7,2.4c.4.6,1,.8,1.7.8s1.7-.5,2.1-1.5h4.2c-.3,1.5-1.1,2.7-2.2,3.6-1.1.9-2.5,1.3-4.1,1.3s-2.4-.3-3.4-.8-1.8-1.3-2.3-2.3c-.6-1-.8-2.2-.8-3.5s.3-2.5.8-3.5Z"/>
            <path class="cls-2" d="M191.1,82.8c-1-.5-1.8-1.3-2.4-2.3-.6-1-.9-2.2-.9-3.5s.3-2.5.9-3.5,1.4-1.8,2.4-2.3,2.2-.8,3.4-.8,2.4.3,3.4.8,1.8,1.3,2.4,2.3.9,2.2.9,3.5-.3,2.5-.9,3.5c-.6,1-1.4,1.8-2.4,2.3s-2.2.8-3.5.8-2.4-.3-3.4-.8ZM196.5,79.3c.5-.6.8-1.4.8-2.4s-.3-1.8-.8-2.4c-.5-.6-1.2-.8-1.9-.8s-1.4.3-1.9.8c-.5.6-.8,1.4-.8,2.4s.3,1.8.8,2.4c.5.6,1.1.8,1.9.8s1.4-.3,1.9-.8Z"/>
            <path class="cls-2" d="M228.3,71.7c1,1,1.4,2.3,1.4,4.1v7.6h-4v-7.1c0-.8-.2-1.5-.7-1.9-.4-.5-1.1-.7-1.8-.7s-1.4.2-1.8.7c-.4.5-.7,1.1-.7,1.9v7.1h-4v-7.1c0-.8-.2-1.5-.7-1.9-.4-.5-1.1-.7-1.8-.7s-1.4.2-1.8.7c-.4.5-.7,1.1-.7,1.9v7.1h-4v-13h4v1.6c.4-.5.9-1,1.6-1.3s1.4-.5,2.2-.5,1.9.2,2.6.6c.8.4,1.4,1,1.8,1.8.5-.7,1.1-1.3,1.8-1.7.8-.5,1.6-.7,2.5-.7,1.6,0,2.9.5,3.9,1.5Z"/>
          </g>
        </g>
      </g>
    </g>
  </g>
</svg>