<?xml version="1.0" encoding="UTF-8"?>
<svg xmlns="http://www.w3.org/2000/svg" version="1.1" viewBox="0 0 26 34.8">
  <defs>
    <style>
      .cls-1 {
        fill: #ffd605;
      }
    </style>
  </defs>
  <!-- Generator: Adobe Illustrator 28.6.0, SVG Export Plug-In . SVG Version: 1.2.0 Build 709)  -->
  <g>
    <g id="Capa_2">
      <path class="cls-1" d="M15.1,34.8c-1.3-4-5.5-6.6-9.3-6.7-.4-7.2-2.3-13.8-5.9-19.6,6.4.3,12.2.7,16.6,1.7,2.8,7.8,2,16.1-1.5,24.7ZM22.4,4.7c1.6,4.9,1.6,11.8.4,17.6,3-5.6,4.2-15.4,2.2-21.3C20.2.2,15.1.3,8.7,0c.6,1.1,1.2,2.3,1.8,3.5,4.5.3,8.6.6,12,1.2h0ZM18.1,8.7c1.7,4.5,2.4,13,.7,20.6,3.2-6,4.8-16.4,2.5-23.3-4.6-.8-10.3-1.2-16.7-1.5.5.9,1,1.8,1.5,2.7,4.6.3,8.7.7,12,1.5h0Z"/>
    </g>
  </g>
</svg>