<?xml version="1.0" encoding="UTF-8"?>
<svg xmlns="http://www.w3.org/2000/svg" version="1.1" viewBox="0 0 700.5 685">
  <defs>
    <style>
      .cls-1, .cls-2 {
        fill: #fff;
      }

      .cls-2 {
        stroke: #231f20;
        stroke-miterlimit: 10;
        stroke-width: 20px;
      }
    </style>
  </defs>
  <!-- Generator: Adobe Illustrator 28.6.0, SVG Export Plug-In . SVG Version: 1.2.0 Build 709)  -->
  <g>
    <g id="Layer_1">
      <g>
        <path class="cls-2" d="M379.4,690.7"/>
        <g>
          <path class="cls-1" d="M288.8,618l-213.8-211.9L399.4,78.8l213.8,211.9-324.4,327.3ZM121.6,405.9l167,165.5,278-280.5-167-165.5L121.6,405.9Z"/>
          <g>
            <g>
              <path class="cls-1" d="M201.1,60.6c-1.4,0-2.7-.2-4.1-.5l-107.3-27.7c-8.8-2.3-14.1-11.3-11.8-20.1,2.3-8.8,11.3-14.1,20.1-11.8l107.3,27.7c8.8,2.3,14.1,11.3,11.8,20.1-1.9,7.4-8.6,12.4-15.9,12.4Z"/>
              <path class="cls-1" d="M207.5,163.7c-8.6,0-15.9-6.7-16.4-15.4l-6.5-103.1c-.6-9.1,6.3-16.9,15.4-17.5,9.1-.6,16.9,6.3,17.5,15.4l6.5,103.1c.6,9.1-6.3,16.9-15.4,17.5-.3,0-.7,0-1,0Z"/>
            </g>
            <path class="cls-1" d="M192.6,657.5c-2.6,0-5.3-.6-7.8-2C70.8,594.4,0,476,0,346.8s17-125.2,49.3-179.3c31.3-52.5,76-96,129.2-126,7.9-4.5,18-1.7,22.4,6.3,4.5,7.9,1.7,18-6.3,22.4C94.9,126.4,32.9,232.4,32.9,346.8s64.2,224.3,167.5,279.8c8,4.3,11,14.3,6.7,22.3-3,5.5-8.7,8.7-14.5,8.7Z"/>
          </g>
          <g>
            <g>
              <path class="cls-1" d="M605.1,685.2c-1,0-2.1,0-3.1-.3l-99.8-19c-8.9-1.7-14.8-10.3-13.1-19.3,1.7-8.9,10.3-14.8,19.3-13.1l99.8,19c8.9,1.7,14.8,10.3,13.1,19.3-1.5,7.9-8.4,13.4-16.2,13.4Z"/>
              <path class="cls-1" d="M505.2,666.2c-8,0-15-5.8-16.3-14l-14.5-93.6c-1.4-9,4.8-17.4,13.8-18.8,9-1.4,17.4,4.8,18.8,13.8l14.5,93.6c1.4,9-4.8,17.4-13.8,18.8-.9.1-1.7.2-2.5.2Z"/>
            </g>
            <path class="cls-1" d="M508,657.4c-5.9,0-11.5-3.1-14.5-8.7-4.3-8-1.3-18,6.7-22.3,103.2-55.5,167.4-162.6,167.4-279.7s-71.7-235.3-182.6-287.4c-8.2-3.9-11.8-13.7-7.9-21.9,3.9-8.2,13.7-11.8,21.9-7.9,59.4,27.9,109.7,71.8,145.4,126.9,36.7,56.7,56.1,122.4,56.1,190.2,0,129.2-70.8,247.5-184.7,308.7-2.5,1.3-5.2,2-7.8,2Z"/>
          </g>
        </g>
      </g>
    </g>
  </g>
</svg>